<svg width="88" height="47" viewBox="0 0 88 47" fill="none" xmlns="http://www.w3.org/2000/svg">
<g filter="url(#filter0_ddddd_606091_703)">
<path d="M17.0782 12.5179H17.0753C14.6897 12.5179 12.7557 14.2616 12.7557 16.4124V16.415C12.7557 18.5658 14.6897 20.3094 17.0753 20.3094H17.0782C19.4638 20.3094 21.3978 18.5658 21.3978 16.415V16.4124C21.3978 14.2616 19.4638 12.5179 17.0782 12.5179Z" fill="#8E8F99"/>
<path d="M48.9614 11.273C48.9546 8.2855 47.6355 5.42211 45.2928 3.30942C42.9501 1.19673 39.7745 0.00678345 36.461 0V0C33.1466 0.00542712 29.9696 1.19477 27.6256 3.30761C25.2817 5.42045 23.9618 8.28461 23.955 11.273V27.7472C23.955 27.7472 48.9585 25.2364 48.9614 11.2755V11.273Z" fill="#8E8F99"/>
<path d="M4 33.1543C4.00601 35.233 4.92435 37.2251 6.55434 38.6952C8.18433 40.1653 10.3935 40.9939 12.699 41C15.004 40.9939 17.2127 40.1657 18.8426 38.6961C20.4725 37.2265 21.3912 35.2351 21.398 33.1569V21.6938C21.398 21.6938 4 23.4422 4 33.1543ZM12.699 35.2082C12.2484 35.2082 11.808 35.0877 11.4334 34.862C11.0588 34.6364 10.7668 34.3156 10.5944 33.9403C10.422 33.565 10.3769 33.152 10.4648 32.7536C10.5527 32.3552 10.7696 31.9893 11.0882 31.702C11.4068 31.4148 11.8127 31.2192 12.2546 31.1399C12.6965 31.0607 13.1545 31.1014 13.5707 31.2568C13.987 31.4123 14.3427 31.6755 14.593 32.0133C14.8433 32.351 14.9769 32.7481 14.9769 33.1543C14.9781 33.4247 14.92 33.6926 14.806 33.9427C14.692 34.1927 14.5244 34.4201 14.3128 34.6116C14.1011 34.8031 13.8496 34.9551 13.5727 35.0588C13.2958 35.1625 12.9988 35.2159 12.699 35.2159V35.2082Z" fill="#8E8F99"/>
<path d="M28.6089 31.515V35.7806H27.73V31.515H28.6089ZM30.3081 33.3373V34.0228H28.3687V33.3373H30.3081ZM30.5132 31.515V32.2035H28.3687V31.515H30.5132ZM34.5269 33.5482V33.7504C34.5269 34.0746 34.4829 34.3656 34.395 34.6234C34.3071 34.8812 34.1831 35.101 34.0229 35.2826C33.8628 35.4623 33.6714 35.6 33.4487 35.6957C33.228 35.7914 32.9829 35.8392 32.7134 35.8392C32.4458 35.8392 32.2007 35.7914 31.978 35.6957C31.7573 35.6 31.5659 35.4623 31.4038 35.2826C31.2417 35.101 31.1157 34.8812 31.0259 34.6234C30.938 34.3656 30.894 34.0746 30.894 33.7504V33.5482C30.894 33.222 30.938 32.931 31.0259 32.6752C31.1138 32.4174 31.2378 32.1976 31.3979 32.016C31.5601 31.8344 31.7515 31.6957 31.9722 31.6C32.1948 31.5043 32.4399 31.4564 32.7075 31.4564C32.9771 31.4564 33.2222 31.5043 33.4429 31.6C33.6655 31.6957 33.8569 31.8344 34.0171 32.016C34.1792 32.1976 34.3042 32.4174 34.3921 32.6752C34.4819 32.931 34.5269 33.222 34.5269 33.5482ZM33.6392 33.7504V33.5424C33.6392 33.3158 33.6187 33.1166 33.5776 32.9447C33.5366 32.7728 33.4761 32.6283 33.396 32.5111C33.3159 32.3939 33.2183 32.306 33.103 32.2474C32.9878 32.1869 32.856 32.1566 32.7075 32.1566C32.5591 32.1566 32.4272 32.1869 32.312 32.2474C32.1987 32.306 32.1021 32.3939 32.022 32.5111C31.9438 32.6283 31.8843 32.7728 31.8433 32.9447C31.8022 33.1166 31.7817 33.3158 31.7817 33.5424V33.7504C31.7817 33.975 31.8022 34.1742 31.8433 34.348C31.8843 34.5199 31.9448 34.6654 32.0249 34.7845C32.105 34.9017 32.2026 34.9906 32.3179 35.0511C32.4331 35.1117 32.5649 35.142 32.7134 35.142C32.8618 35.142 32.9937 35.1117 33.1089 35.0511C33.2241 34.9906 33.3208 34.9017 33.3989 34.7845C33.4771 34.6654 33.5366 34.5199 33.5776 34.348C33.6187 34.1742 33.6392 33.975 33.6392 33.7504ZM37.3804 34.6644C37.3804 34.5883 37.3687 34.5199 37.3452 34.4594C37.3237 34.3969 37.2827 34.3402 37.2222 34.2894C37.1616 34.2367 37.0767 34.1849 36.9673 34.1342C36.8579 34.0834 36.7163 34.0306 36.5425 33.976C36.3491 33.9135 36.1655 33.8431 35.9917 33.765C35.8198 33.6869 35.6675 33.5961 35.5347 33.4926C35.4038 33.3871 35.3003 33.265 35.2241 33.1263C35.1499 32.9877 35.1128 32.8265 35.1128 32.6429C35.1128 32.4652 35.1519 32.3041 35.23 32.1595C35.3081 32.0131 35.4175 31.8881 35.5581 31.7845C35.6987 31.6791 35.8647 31.598 36.0562 31.5414C36.2495 31.4847 36.4614 31.4564 36.6919 31.4564C37.0063 31.4564 37.2808 31.5131 37.5151 31.6263C37.7495 31.7396 37.9312 31.8949 38.0601 32.0922C38.1909 32.2894 38.2563 32.515 38.2563 32.7689H37.3833C37.3833 32.6439 37.3569 32.5345 37.3042 32.4408C37.2534 32.3451 37.1753 32.2699 37.0698 32.2152C36.9663 32.1605 36.8354 32.1332 36.6772 32.1332C36.5249 32.1332 36.3979 32.1566 36.2964 32.2035C36.1948 32.2484 36.1187 32.3099 36.0679 32.3881C36.0171 32.4642 35.9917 32.5502 35.9917 32.6459C35.9917 32.7181 36.0093 32.7836 36.0444 32.8422C36.0815 32.9008 36.1362 32.9554 36.2085 33.0062C36.2808 33.057 36.3696 33.1049 36.4751 33.1498C36.5806 33.1947 36.7026 33.2386 36.8413 33.2816C37.0737 33.3519 37.2778 33.431 37.4536 33.5189C37.6313 33.6068 37.7798 33.7054 37.8989 33.8148C38.0181 33.9242 38.1079 34.0482 38.1685 34.1869C38.229 34.3256 38.2593 34.4828 38.2593 34.6586C38.2593 34.8441 38.2231 35.0101 38.1509 35.1566C38.0786 35.3031 37.9741 35.4271 37.8374 35.5287C37.7007 35.6302 37.5376 35.7074 37.3481 35.7601C37.1587 35.8129 36.9468 35.8392 36.7124 35.8392C36.5015 35.8392 36.2935 35.8119 36.0884 35.7572C35.8833 35.7006 35.6968 35.6156 35.5288 35.5023C35.3628 35.389 35.23 35.2445 35.1304 35.0687C35.0308 34.8929 34.981 34.6849 34.981 34.4447H35.8628C35.8628 34.5775 35.8833 34.6898 35.9243 34.7816C35.9653 34.8734 36.0229 34.9476 36.0972 35.0043C36.1733 35.0609 36.2632 35.1019 36.3667 35.1273C36.4722 35.1527 36.5874 35.1654 36.7124 35.1654C36.8647 35.1654 36.9897 35.1439 37.0874 35.101C37.187 35.058 37.2603 34.9984 37.3071 34.9222C37.356 34.8461 37.3804 34.7601 37.3804 34.6644ZM40.7642 31.515V35.7806H39.8882V31.515H40.7642ZM42.0767 31.515V32.2035H38.5962V31.515H42.0767ZM45.4399 35.0951V35.7806H43.1694V35.0951H45.4399ZM43.4565 31.515V35.7806H42.5776V31.515H43.4565ZM45.144 33.2523V33.9203H43.1694V33.2523H45.144ZM45.437 31.515V32.2035H43.1694V31.515H45.437ZM45.9526 31.515H47.5435C47.8696 31.515 48.1499 31.5638 48.3843 31.6615C48.6206 31.7592 48.8022 31.9037 48.9292 32.0951C49.0562 32.2865 49.1196 32.5219 49.1196 32.8011C49.1196 33.0297 49.0806 33.226 49.0024 33.39C48.9263 33.5521 48.8179 33.6879 48.6772 33.7972C48.5386 33.9047 48.3755 33.9906 48.188 34.0551L47.9097 34.2015H46.5269L46.521 33.516H47.5493C47.7036 33.516 47.8315 33.4886 47.9331 33.434C48.0347 33.3793 48.1108 33.3031 48.1616 33.2054C48.2144 33.1078 48.2407 32.9945 48.2407 32.8656C48.2407 32.7289 48.2153 32.6107 48.1646 32.5111C48.1138 32.4115 48.0366 32.3353 47.9331 32.2826C47.8296 32.2299 47.6997 32.2035 47.5435 32.2035H46.8315V35.7806H45.9526V31.515ZM48.3374 35.7806L47.3647 33.8793L48.2935 33.8734L49.2778 35.7396V35.7806H48.3374ZM52.9517 34.2601H51.8647V33.5746H52.9517C53.1196 33.5746 53.2563 33.5472 53.3618 33.4926C53.4673 33.4359 53.5444 33.3578 53.5933 33.2582C53.6421 33.1586 53.6665 33.0463 53.6665 32.9213C53.6665 32.7943 53.6421 32.6761 53.5933 32.5668C53.5444 32.4574 53.4673 32.3695 53.3618 32.3031C53.2563 32.2367 53.1196 32.2035 52.9517 32.2035H52.1694V35.7806H51.2905V31.515H52.9517C53.2856 31.515 53.5718 31.5756 53.8101 31.6967C54.0503 31.8158 54.2339 31.9808 54.3608 32.1918C54.4878 32.4027 54.5513 32.6439 54.5513 32.9154C54.5513 33.1908 54.4878 33.4291 54.3608 33.6302C54.2339 33.8314 54.0503 33.9867 53.8101 34.0961C53.5718 34.2054 53.2856 34.2601 52.9517 34.2601ZM58.02 35.0951V35.7806H55.7495V35.0951H58.02ZM56.0366 31.515V35.7806H55.1577V31.515H56.0366ZM57.7241 33.2523V33.9203H55.7495V33.2523H57.7241ZM58.0171 31.515V32.2035H55.7495V31.515H58.0171ZM60.4985 31.515V35.7806H59.6226V31.515H60.4985ZM61.811 31.515V32.2035H58.3306V31.515H61.811ZM65.1743 35.0951V35.7806H62.9038V35.0951H65.1743ZM63.1909 31.515V35.7806H62.312V31.515H63.1909ZM64.8784 33.2523V33.9203H62.9038V33.2523H64.8784ZM65.1714 31.515V32.2035H62.9038V31.515H65.1714ZM65.687 31.515H67.2778C67.604 31.515 67.8843 31.5638 68.1187 31.6615C68.355 31.7592 68.5366 31.9037 68.6636 32.0951C68.7905 32.2865 68.854 32.5219 68.854 32.8011C68.854 33.0297 68.8149 33.226 68.7368 33.39C68.6606 33.5521 68.5522 33.6879 68.4116 33.7972C68.2729 33.9047 68.1099 33.9906 67.9224 34.0551L67.644 34.2015H66.2612L66.2554 33.516H67.2837C67.438 33.516 67.5659 33.4886 67.6675 33.434C67.769 33.3793 67.8452 33.3031 67.896 33.2054C67.9487 33.1078 67.9751 32.9945 67.9751 32.8656C67.9751 32.7289 67.9497 32.6107 67.8989 32.5111C67.8481 32.4115 67.771 32.3353 67.6675 32.2826C67.564 32.2299 67.4341 32.2035 67.2778 32.2035H66.5659V35.7806H65.687V31.515ZM68.0718 35.7806L67.0991 33.8793L68.0278 33.8734L69.0122 35.7396V35.7806H68.0718ZM71.7515 34.6644C71.7515 34.5883 71.7397 34.5199 71.7163 34.4594C71.6948 34.3969 71.6538 34.3402 71.5933 34.2894C71.5327 34.2367 71.4478 34.1849 71.3384 34.1342C71.229 34.0834 71.0874 34.0306 70.9136 33.976C70.7202 33.9135 70.5366 33.8431 70.3628 33.765C70.1909 33.6869 70.0386 33.5961 69.9058 33.4926C69.7749 33.3871 69.6714 33.265 69.5952 33.1263C69.521 32.9877 69.4839 32.8265 69.4839 32.6429C69.4839 32.4652 69.5229 32.3041 69.6011 32.1595C69.6792 32.0131 69.7886 31.8881 69.9292 31.7845C70.0698 31.6791 70.2358 31.598 70.4272 31.5414C70.6206 31.4847 70.8325 31.4564 71.063 31.4564C71.3774 31.4564 71.6519 31.5131 71.8862 31.6263C72.1206 31.7396 72.3022 31.8949 72.4312 32.0922C72.562 32.2894 72.6274 32.515 72.6274 32.7689H71.7544C71.7544 32.6439 71.728 32.5345 71.6753 32.4408C71.6245 32.3451 71.5464 32.2699 71.4409 32.2152C71.3374 32.1605 71.2065 32.1332 71.0483 32.1332C70.896 32.1332 70.769 32.1566 70.6675 32.2035C70.5659 32.2484 70.4897 32.3099 70.439 32.3881C70.3882 32.4642 70.3628 32.5502 70.3628 32.6459C70.3628 32.7181 70.3804 32.7836 70.4155 32.8422C70.4526 32.9008 70.5073 32.9554 70.5796 33.0062C70.6519 33.057 70.7407 33.1049 70.8462 33.1498C70.9517 33.1947 71.0737 33.2386 71.2124 33.2816C71.4448 33.3519 71.6489 33.431 71.8247 33.5189C72.0024 33.6068 72.1509 33.7054 72.27 33.8148C72.3892 33.9242 72.479 34.0482 72.5396 34.1869C72.6001 34.3256 72.6304 34.4828 72.6304 34.6586C72.6304 34.8441 72.5942 35.0101 72.522 35.1566C72.4497 35.3031 72.3452 35.4271 72.2085 35.5287C72.0718 35.6302 71.9087 35.7074 71.7192 35.7601C71.5298 35.8129 71.3179 35.8392 71.0835 35.8392C70.8726 35.8392 70.6646 35.8119 70.4595 35.7572C70.2544 35.7006 70.0679 35.6156 69.8999 35.5023C69.7339 35.389 69.6011 35.2445 69.5015 35.0687C69.4019 34.8929 69.3521 34.6849 69.3521 34.4447H70.2339C70.2339 34.5775 70.2544 34.6898 70.2954 34.7816C70.3364 34.8734 70.394 34.9476 70.4683 35.0043C70.5444 35.0609 70.6343 35.1019 70.7378 35.1273C70.8433 35.1527 70.9585 35.1654 71.0835 35.1654C71.2358 35.1654 71.3608 35.1439 71.4585 35.101C71.5581 35.058 71.6313 34.9984 71.6782 34.9222C71.7271 34.8461 71.7515 34.7601 71.7515 34.6644Z" fill="#8E8F99"/>
</g>
<defs>
<filter id="filter0_ddddd_606091_703" x="0" y="0" width="76.6304" height="49" filterUnits="userSpaceOnUse" color-interpolation-filters="sRGB">
<feFlood flood-opacity="0" result="BackgroundImageFix"/>
<feColorMatrix in="SourceAlpha" type="matrix" values="0 0 0 0 0 0 0 0 0 0 0 0 0 0 0 0 0 0 127 0" result="hardAlpha"/>
<feOffset dy="4"/>
<feGaussianBlur stdDeviation="2"/>
<feComposite in2="hardAlpha" operator="out"/>
<feColorMatrix type="matrix" values="0 0 0 0 0 0 0 0 0 0 0 0 0 0 0 0 0 0 0.25 0"/>
<feBlend mode="normal" in2="BackgroundImageFix" result="effect1_dropShadow_606091_703"/>
<feColorMatrix in="SourceAlpha" type="matrix" values="0 0 0 0 0 0 0 0 0 0 0 0 0 0 0 0 0 0 127 0" result="hardAlpha"/>
<feOffset dy="4"/>
<feGaussianBlur stdDeviation="2"/>
<feComposite in2="hardAlpha" operator="out"/>
<feColorMatrix type="matrix" values="0 0 0 0 0 0 0 0 0 0 0 0 0 0 0 0 0 0 0.25 0"/>
<feBlend mode="normal" in2="effect1_dropShadow_606091_703" result="effect2_dropShadow_606091_703"/>
<feColorMatrix in="SourceAlpha" type="matrix" values="0 0 0 0 0 0 0 0 0 0 0 0 0 0 0 0 0 0 127 0" result="hardAlpha"/>
<feOffset dy="4"/>
<feGaussianBlur stdDeviation="2"/>
<feComposite in2="hardAlpha" operator="out"/>
<feColorMatrix type="matrix" values="0 0 0 0 0 0 0 0 0 0 0 0 0 0 0 0 0 0 0.25 0"/>
<feBlend mode="normal" in2="effect2_dropShadow_606091_703" result="effect3_dropShadow_606091_703"/>
<feColorMatrix in="SourceAlpha" type="matrix" values="0 0 0 0 0 0 0 0 0 0 0 0 0 0 0 0 0 0 127 0" result="hardAlpha"/>
<feOffset dy="4"/>
<feGaussianBlur stdDeviation="2"/>
<feComposite in2="hardAlpha" operator="out"/>
<feColorMatrix type="matrix" values="0 0 0 0 0 0 0 0 0 0 0 0 0 0 0 0 0 0 0.25 0"/>
<feBlend mode="normal" in2="effect3_dropShadow_606091_703" result="effect4_dropShadow_606091_703"/>
<feColorMatrix in="SourceAlpha" type="matrix" values="0 0 0 0 0 0 0 0 0 0 0 0 0 0 0 0 0 0 127 0" result="hardAlpha"/>
<feOffset dy="4"/>
<feGaussianBlur stdDeviation="2"/>
<feComposite in2="hardAlpha" operator="out"/>
<feColorMatrix type="matrix" values="0 0 0 0 0 0 0 0 0 0 0 0 0 0 0 0 0 0 0.25 0"/>
<feBlend mode="normal" in2="effect4_dropShadow_606091_703" result="effect5_dropShadow_606091_703"/>
<feBlend mode="normal" in="SourceGraphic" in2="effect5_dropShadow_606091_703" result="shape"/>
</filter>
</defs>
</svg>
